<?xml version="1.0" encoding="utf-8"?>
<!-- Generator: Adobe Illustrator 25.4.1, SVG Export Plug-In . SVG Version: 6.00 Build 0)  -->
<svg version="1.1" id="Layer_1" xmlns="http://www.w3.org/2000/svg" xmlns:xlink="http://www.w3.org/1999/xlink" x="0px" y="0px"
	 viewBox="0 0 667.3 433.1" style="enable-background:new 0 0 667.3 433.1;" xml:space="preserve">
<style type="text/css">
	.st0{fill:none;stroke:#F7E137;stroke-width:4;stroke-linecap:round;stroke-linejoin:bevel;stroke-miterlimit:10;}
</style>
<g id="Points" xmlns:cc="http://creativecommons.org/ns#" xmlns:inkscape="http://www.inkscape.org/namespaces/inkscape">
	<path id="Dick_Knecht" vector-effect="none" class="st0" d="M55,253.7l15.9,15.9 M70.9,253.7L55,269.6"/>
	<path id="Rob_Oliver" vector-effect="none" class="st0" d="M148.9,222.5l15.9,15.9 M164.7,222.5l-15.9,15.9"/>
	<path id="Masters_family" vector-effect="none" class="st0" d="M181.1,193.2l15.9,15.9 M197,193.2l-15.9,15.9"/>
	<path id="Sharon_Weber_00000054945603604280276150000013192690276652447878_" vector-effect="none" class="st0" d="M245.1,123
		l15.9,15.9 M261,123l-15.9,15.9"/>
	<path id="Darrel_Heimes" vector-effect="none" class="st0" d="M330.7,128.1l15.9,15.9 M346.6,128.1L330.7,144"/>
	<path id="Delores_Allen" vector-effect="none" class="st0" d="M352.6,112.9l15.9,15.9 M368.4,112.9l-15.9,15.9"/>
	<path id="Sharon_Weber_00000065754597888779471290000017104743018617424530_" vector-effect="none" class="st0" d="M298.8,146.4
		l15.9,15.9 M314.6,146.4l-15.9,15.9"/>
	<path id="Steve_Paula" vector-effect="none" class="st0" d="M290.9,125.6l15.9,15.9 M306.8,125.6l-15.9,15.9"/>
	<path id="Warren_Nelson" vector-effect="none" class="st0" d="M21.8,285.3l15.9,15.9 M37.6,285.3l-15.9,15.9"/>
</g>
</svg>
